<?xml version="1.0" encoding="UTF-8" standalone="no"?>
<!-- Created with Inkscape (http://www.inkscape.org/) -->

<svg
   width="256mm"
   height="256mm"
   viewBox="0 0 256 256"
   version="1.1"
   id="svg5"
   xml:space="preserve"
   inkscape:version="1.2.1 (9c6d41e410, 2022-07-14, custom)"
   sodipodi:docname="svelte-1.svg"
   xmlns:inkscape="http://www.inkscape.org/namespaces/inkscape"
   xmlns:sodipodi="http://sodipodi.sourceforge.net/DTD/sodipodi-0.dtd"
   xmlns="http://www.w3.org/2000/svg"
   xmlns:svg="http://www.w3.org/2000/svg"><sodipodi:namedview
     id="namedview7"
     pagecolor="#505050"
     bordercolor="#eeeeee"
     borderopacity="1"
     inkscape:showpageshadow="0"
     inkscape:pageopacity="0"
     inkscape:pagecheckerboard="0"
     inkscape:deskcolor="#505050"
     inkscape:document-units="mm"
     showgrid="false"
     inkscape:zoom="0.2102413"
     inkscape:cx="482.77859"
     inkscape:cy="527.96477"
     inkscape:window-width="2560"
     inkscape:window-height="1373"
     inkscape:window-x="2560"
     inkscape:window-y="0"
     inkscape:window-maximized="1"
     inkscape:current-layer="layer1" /><defs
     id="defs2" /><g
     inkscape:label="Layer 1"
     inkscape:groupmode="layer"
     id="layer1"
     transform="translate(22.999999,-8.3143875)"><g
       id="g1787"
       transform="matrix(0.51324148,0,0,0.4273157,-22.97676,8.2051419)"
       inkscape:export-filename="g1787.png"
       inkscape:export-xdpi="25.4"
       inkscape:export-ydpi="25.4"><path
         d="M 466.95,79.52 C 411.29,-0.1 301.35,-23.7 221.87,26.92 L 82.29,115.85 c -9.39,5.9 -18.15,12.76 -26.12,20.47 -7.98,7.71 -15.13,16.23 -21.34,25.42 -6.21,9.19 -11.45,19 -15.64,29.27 a 160.478,160.478 0 0 0 -9.26,31.87 c -1.65,9.15 -2.55,18.43 -2.67,27.73 -0.13,9.31 0.52,18.61 1.93,27.8 1.41,9.2 3.58,18.27 6.48,27.11 2.9,8.84 6.53,17.42 10.85,25.66 a 161.68,161.68 0 0 0 -8.22,13.97 c -2.51,4.79 -4.77,9.71 -6.78,14.73 -2.01,5.02 -3.76,10.14 -5.25,15.34 -1.49,5.2 -2.71,10.47 -3.67,15.79 a 170.365,170.365 0 0 0 1.55,67.48 c 2.5,11.05 6.09,21.83 10.73,32.17 4.64,10.34 10.29,20.2 16.89,29.42 55.66,79.62 165.59,103.22 245.07,52.6 l 139.58,-88.56 c 9.39,-5.91 18.13,-12.78 26.1,-20.5 a 160.58,160.58 0 0 0 21.33,-25.42 c 6.21,-9.18 11.45,-18.99 15.64,-29.26 4.19,-10.26 7.3,-20.94 9.29,-31.85 1.65,-9.15 2.54,-18.42 2.66,-27.72 0.12,-9.3 -0.53,-18.6 -1.95,-27.79 -1.41,-9.19 -3.58,-18.25 -6.49,-27.09 -2.91,-8.83 -6.54,-17.41 -10.86,-25.65 2.97,-4.51 5.72,-9.18 8.23,-13.97 2.5,-4.79 4.77,-9.71 6.78,-14.73 2.01,-5.02 3.77,-10.14 5.27,-15.34 1.49,-5.19 2.73,-10.46 3.7,-15.78 1.98,-11.16 2.84,-22.49 2.58,-33.82 -0.26,-11.33 -1.65,-22.6 -4.15,-33.66 -2.5,-11.05 -6.09,-21.83 -10.73,-32.17 A 170.906,170.906 0 0 0 466.95,79.95"
         fill="#ff3e00"
         id="path1775" /><path
         d="m 208.23,527.78 a 110.876,110.876 0 0 1 -33.49,3.42 c -11.27,-0.58 -22.39,-2.86 -32.97,-6.79 A 111.06,111.06 0 0 1 112.35,508.06 111.108,111.108 0 0 1 89.2,483.64 C 85.23,478.09 81.83,472.17 79.05,465.95 A 102.38,102.38 0 0 1 72.6,446.61 c -1.49,-6.65 -2.33,-13.43 -2.48,-20.24 -0.15,-6.81 0.38,-13.62 1.58,-20.33 0.19,-1.09 0.41,-2.18 0.65,-3.26 0.23,-1.09 0.49,-2.17 0.77,-3.24 0.27,-1.08 0.57,-2.15 0.89,-3.22 0.31,-1.06 0.65,-2.12 1,-3.17 l 2.63,-8.03 7.17,5.35 c 4.11,3 8.35,5.83 12.7,8.47 4.35,2.65 8.81,5.11 13.37,7.37 4.55,2.27 9.21,4.35 13.94,6.22 4.73,1.88 9.54,3.55 14.42,5.02 l 5.35,1.55 -0.48,5.35 a 31.395,31.395 0 0 0 1.12,10.81 c 0.49,1.76 1.14,3.46 1.93,5.1 0.79,1.64 1.72,3.21 2.78,4.69 a 33.4,33.4 0 0 0 6.99,7.35 c 2.68,2.08 5.67,3.74 8.86,4.92 3.19,1.18 6.53,1.86 9.93,2.03 3.39,0.18 6.79,-0.17 10.08,-1.03 0.76,-0.2 1.5,-0.43 2.24,-0.69 0.74,-0.26 1.47,-0.54 2.18,-0.86 0.72,-0.31 1.42,-0.65 2.12,-1.02 0.69,-0.36 1.36,-0.75 2.02,-1.17 l 139.37,-88.94 a 28.96,28.96 0 0 0 4.75,-3.72 c 1.45,-1.41 2.74,-2.96 3.87,-4.63 1.13,-1.67 2.07,-3.46 2.83,-5.33 0.75,-1.87 1.31,-3.81 1.67,-5.79 0.35,-2.03 0.5,-4.08 0.45,-6.14 -0.05,-2.05 -0.31,-4.09 -0.77,-6.1 -0.45,-2 -1.11,-3.95 -1.96,-5.83 -0.84,-1.87 -1.88,-3.65 -3.08,-5.32 -1.94,-2.79 -4.29,-5.26 -6.98,-7.34 -2.69,-2.08 -5.68,-3.74 -8.86,-4.92 a 33.464,33.464 0 0 0 -9.93,-2.04 c -3.4,-0.17 -6.8,0.18 -10.09,1.03 -0.75,0.2 -1.5,0.43 -2.24,0.69 -0.74,0.26 -1.46,0.54 -2.18,0.85 -0.72,0.32 -1.42,0.66 -2.11,1.03 -0.69,0.36 -1.37,0.76 -2.03,1.18 l -53.52,33.98 c -2.18,1.38 -4.42,2.68 -6.7,3.9 -2.29,1.21 -4.61,2.34 -6.98,3.38 -2.37,1.04 -4.78,1.99 -7.22,2.84 -2.44,0.86 -4.91,1.62 -7.41,2.29 -10.91,2.82 -22.18,3.96 -33.43,3.38 -11.25,-0.58 -22.34,-2.87 -32.9,-6.78 -10.56,-3.92 -20.46,-9.43 -29.36,-16.33 -8.9,-6.9 -16.7,-15.11 -23.13,-24.36 -3.95,-5.55 -7.34,-11.48 -10.11,-17.7 -2.78,-6.22 -4.93,-12.7 -6.42,-19.34 -1.49,-6.65 -2.31,-13.43 -2.45,-20.24 -0.15,-6.8 0.38,-13.61 1.59,-20.31 a 96.419,96.419 0 0 1 14.94,-36.86 96.283,96.283 0 0 1 28.57,-27.68 L 262.34,84.5 c 2.17,-1.38 4.39,-2.68 6.66,-3.9 2.27,-1.21 4.59,-2.34 6.94,-3.38 a 98.21,98.21 0 0 1 7.18,-2.84 c 2.42,-0.86 4.88,-1.63 7.37,-2.3 10.92,-2.83 22.21,-3.99 33.47,-3.42 11.27,0.58 22.38,2.86 32.96,6.79 10.58,3.92 20.49,9.44 29.41,16.35 a 111.11,111.11 0 0 1 23.14,24.43 c 3.96,5.54 7.37,11.46 10.16,17.68 2.79,6.22 4.95,12.69 6.46,19.34 1.5,6.65 2.34,13.43 2.49,20.24 0.16,6.81 -0.36,13.62 -1.56,20.33 -0.21,1.1 -0.43,2.2 -0.68,3.29 -0.24,1.09 -0.5,2.18 -0.78,3.26 -0.27,1.09 -0.57,2.17 -0.88,3.24 -0.31,1.08 -0.63,2.15 -0.98,3.21 l -2.67,8.03 -7.12,-5.35 c -4.12,-3.03 -8.37,-5.87 -12.73,-8.54 -4.36,-2.66 -8.84,-5.14 -13.41,-7.43 a 182.39,182.39 0 0 0 -28.45,-11.32 l -5.36,-1.55 0.49,-5.35 c 0.15,-1.83 0.14,-3.67 -0.03,-5.49 -0.16,-1.82 -0.49,-3.63 -0.97,-5.4 -0.49,-1.76 -1.12,-3.49 -1.91,-5.14 -0.78,-1.66 -1.71,-3.24 -2.77,-4.74 a 33.153,33.153 0 0 0 -6.99,-7.2 32.991,32.991 0 0 0 -8.82,-4.8 33.244,33.244 0 0 0 -19.83,-0.89 c -0.76,0.2 -1.51,0.43 -2.24,0.68 -0.74,0.26 -1.47,0.55 -2.19,0.86 -0.71,0.31 -1.42,0.66 -2.11,1.02 -0.69,0.37 -1.37,0.76 -2.03,1.18 l -139.63,88.78 c -1.7,1.07 -3.29,2.32 -4.73,3.72 -1.44,1.4 -2.74,2.95 -3.87,4.61 a 29.724,29.724 0 0 0 -2.83,5.31 c -0.76,1.87 -1.32,3.8 -1.68,5.78 -0.35,2.03 -0.5,4.09 -0.45,6.15 a 31.547,31.547 0 0 0 2.73,11.95 31.84,31.84 0 0 0 3.07,5.34 c 1.93,2.76 4.27,5.22 6.94,7.28 a 33.26,33.26 0 0 0 8.79,4.9 33.533,33.533 0 0 0 19.86,1.09 c 0.75,-0.21 1.5,-0.44 2.24,-0.7 0.73,-0.26 1.46,-0.55 2.18,-0.86 a 29.2,29.2 0 0 0 2.11,-1.02 c 0.69,-0.36 1.37,-0.75 2.03,-1.17 l 53.52,-33.92 c 2.19,-1.4 4.42,-2.72 6.71,-3.94 2.28,-1.23 4.61,-2.36 6.99,-3.41 a 99.39,99.39 0 0 1 7.23,-2.84 c 2.45,-0.86 4.93,-1.62 7.44,-2.28 10.92,-2.84 22.2,-4 33.47,-3.44 11.27,0.57 22.38,2.85 32.96,6.77 10.57,3.92 20.49,9.43 29.4,16.35 8.92,6.91 16.72,15.14 23.15,24.41 3.96,5.55 7.36,11.47 10.15,17.69 a 102.65,102.65 0 0 1 6.46,19.34 c 1.5,6.64 2.34,13.42 2.5,20.23 0.16,6.82 -0.37,13.63 -1.56,20.33 a 96.419,96.419 0 0 1 -5.55,19.21 95.753,95.753 0 0 1 -9.4,17.65 c -3.73,5.54 -8.03,10.68 -12.83,15.33 -4.8,4.65 -10.07,8.79 -15.73,12.35 l -139.64,88.93 c -2.19,1.39 -4.43,2.7 -6.71,3.92 -2.29,1.22 -4.62,2.35 -7,3.39 -2.37,1.05 -4.78,2 -7.23,2.86 -2.44,0.86 -4.92,1.63 -7.42,2.3"
         fill="#ffffff"
         id="path1777" /></g></g></svg>
